<?xml version="1.0" ?><!DOCTYPE svg  PUBLIC '-//W3C//DTD SVG 1.1//EN'  'http://www.w3.org/Graphics/SVG/1.1/DTD/svg11.dtd'><svg height="512px" style="enable-background:new 0 0 512 512;" version="1.1" viewBox="0 0 512 512" width="512px" xml:space="preserve" xmlns="http://www.w3.org/2000/svg" xmlns:xlink="http://www.w3.org/1999/xlink"><g id="A_-_38_x2C__user_x2C__id_x2C__login_x2C__image"><g><polygon points="288.869,194.477 283.205,189.288 260.369,220.456 268.504,228.001   "/><path d="M255.996,71.554c-23.178,0-42.036,18.859-42.036,42.04c0,21.216,14.838,62.507,42.036,62.507    c27.227,0,42.08-41.292,42.08-62.507C298.076,90.413,279.199,71.554,255.996,71.554z"/><polygon points="251.686,220.536 228.83,189.282 223.037,194.563 242.362,229.809   "/><path d="M319.927,342.241h24.265V217.458l-49.748-19.521l-22.42,36.905c-0.512,0.843-1.374,1.41-2.35,1.545    c-0.15,0.021-0.302,0.032-0.453,0.032c-0.054,0-0.105-0.013-0.16-0.016c-0.084-0.004-0.168-0.013-0.252-0.023    c-0.143-0.018-0.282-0.046-0.422-0.083c-0.08-0.021-0.158-0.042-0.237-0.069c-0.146-0.05-0.284-0.114-0.421-0.185    c-0.064-0.033-0.129-0.059-0.19-0.096c-0.194-0.116-0.379-0.248-0.548-0.404l-10.914-10.124l-12.181,12.114    c-0.17,0.169-0.359,0.313-0.557,0.438c-0.066,0.042-0.137,0.072-0.206,0.109c-0.138,0.075-0.278,0.144-0.425,0.198    c-0.084,0.031-0.169,0.053-0.255,0.077c-0.143,0.04-0.285,0.07-0.432,0.09c-0.09,0.012-0.179,0.022-0.269,0.026    c-0.057,0.003-0.113,0.017-0.169,0.017c-0.156,0-0.312-0.011-0.469-0.033c-1.02-0.147-1.912-0.766-2.408-1.67l-21.274-38.802    l-49.624,19.473v124.784h24.3V240.23c0-1.812,1.469-3.28,3.28-3.28c1.812,0,3.28,1.468,3.28,3.28v105.291v74.547v48.172h54.048    V359.775c0-1.812,1.469-3.28,3.28-3.28c1.813,0,3.28,1.469,3.28,3.28V468.24h54.091v-48.172v-74.547V240.23    c0-1.812,1.469-3.28,3.279-3.28c1.812,0,3.28,1.468,3.28,3.28V342.241z"/><path d="M255.996,43.76c-105.5,0-191.33,85.85-191.33,191.374c0,81.423,51.024,153.331,127.442,180.354v-66.687h-27.58    c-1.812,0-3.28-1.469-3.28-3.279v-130.3c0-1.349,0.825-2.561,2.082-3.054l53.828-21.123l9.952-9.071    c0.688-0.628,1.607-0.937,2.537-0.84c0.927,0.093,1.77,0.576,2.32,1.328l24.031,32.859l24.077-32.862    c0.551-0.752,1.396-1.233,2.324-1.325c0.93-0.097,1.85,0.215,2.536,0.845l9.901,9.067l53.832,21.122    c1.256,0.493,2.081,1.705,2.081,3.054v130.3c0,1.811-1.468,3.279-3.28,3.279h-27.544v66.686    c76.397-27.028,127.407-98.935,127.407-180.353C447.334,129.609,361.5,43.76,255.996,43.76z M255.996,182.661    c-31.906,0-48.596-44.963-48.596-69.067c0-26.798,21.8-48.6,48.596-48.6c26.819,0,48.64,21.802,48.64,48.6    C304.636,137.698,287.931,182.661,255.996,182.661z M438.76,237.253c-0.006,0.391-0.08,0.765-0.211,1.111    c0.118,0.354,0.178,0.732,0.168,1.126l-0.021,0.746c-0.011,0.393-0.092,0.767-0.229,1.112c0.111,0.354,0.166,0.732,0.148,1.124    l-0.033,0.745c-0.017,0.394-0.103,0.768-0.246,1.111c0.107,0.355,0.153,0.733,0.131,1.124l-0.045,0.757    c-0.023,0.391-0.116,0.761-0.265,1.1c0.101,0.358,0.142,0.739,0.112,1.131l-0.059,0.76c-0.031,0.389-0.131,0.756-0.283,1.092    c0.095,0.359,0.131,0.742,0.096,1.135l-0.071,0.758c-0.038,0.39-0.143,0.758-0.302,1.092c0.09,0.363,0.119,0.749,0.076,1.142    l-0.082,0.745c-0.045,0.391-0.155,0.758-0.32,1.091c0.084,0.364,0.106,0.748,0.058,1.139l-0.095,0.744    c-0.05,0.391-0.167,0.758-0.338,1.089c0.078,0.363,0.094,0.747,0.04,1.136l-0.108,0.753c-0.057,0.389-0.18,0.751-0.355,1.077    c0.072,0.367,0.082,0.753,0.021,1.144l-0.118,0.739c-0.064,0.39-0.193,0.751-0.375,1.076c0.065,0.366,0.069,0.751,0.002,1.139    l-0.131,0.735c-0.069,0.39-0.205,0.751-0.393,1.073c0.061,0.367,0.057,0.75-0.016,1.135l-0.145,0.748    c-0.076,0.385-0.217,0.739-0.408,1.056c0.055,0.37,0.045,0.757-0.036,1.144l-0.155,0.733c-0.082,0.384-0.229,0.738-0.425,1.053    c0.048,0.37,0.032,0.753-0.056,1.139l-0.166,0.73c-0.089,0.385-0.242,0.738-0.445,1.051c0.042,0.368,0.02,0.751-0.072,1.132    l-0.182,0.739c-0.096,0.379-0.252,0.727-0.457,1.032c0.035,0.373,0.007,0.76-0.094,1.142l-0.191,0.726    c-0.101,0.378-0.264,0.726-0.477,1.03c0.029,0.371-0.006,0.754-0.111,1.135l-0.201,0.719c-0.108,0.379-0.277,0.724-0.496,1.025    c0.023,0.371-0.018,0.754-0.129,1.131l-0.214,0.718c-0.113,0.377-0.288,0.719-0.511,1.018c0.017,0.371-0.029,0.752-0.148,1.127    l-0.229,0.726c-0.12,0.373-0.299,0.708-0.524,1.001c0.01,0.371-0.044,0.749-0.166,1.122l-0.241,0.719    c-0.126,0.372-0.312,0.705-0.542,0.995c0.004,0.374-0.057,0.755-0.188,1.128l-0.25,0.705c-0.131,0.367-0.322,0.699-0.558,0.984    c-0.002,0.375-0.067,0.755-0.205,1.126l-0.261,0.7c-0.137,0.366-0.334,0.696-0.574,0.978c-0.008,0.374-0.08,0.752-0.224,1.119    l-0.267,0.686c-0.144,0.37-0.348,0.7-0.597,0.981c-0.014,0.372-0.091,0.748-0.241,1.113l-0.281,0.691    c-0.15,0.364-0.357,0.687-0.608,0.962c-0.021,0.372-0.104,0.747-0.261,1.109l-0.293,0.687c-0.156,0.36-0.368,0.68-0.623,0.951    c-0.025,0.371-0.117,0.745-0.277,1.104l-0.305,0.681c-0.161,0.36-0.38,0.677-0.641,0.943c-0.032,0.371-0.129,0.742-0.295,1.101    l-0.317,0.678c-0.167,0.355-0.39,0.666-0.653,0.928c-0.039,0.372-0.143,0.741-0.314,1.097l-0.322,0.662    c-0.174,0.355-0.402,0.666-0.672,0.925c-0.044,0.371-0.153,0.741-0.332,1.095l-0.334,0.656c-0.18,0.354-0.415,0.66-0.688,0.916    c-0.052,0.369-0.167,0.737-0.351,1.086l-0.346,0.65c-0.184,0.35-0.422,0.65-0.699,0.9c-0.057,0.366-0.176,0.73-0.363,1.074    l-0.359,0.655c-0.191,0.347-0.436,0.644-0.717,0.889c-0.062,0.366-0.188,0.728-0.381,1.068l-0.371,0.649    c-0.196,0.343-0.445,0.637-0.73,0.877c-0.068,0.366-0.201,0.726-0.401,1.064l-0.382,0.644c-0.2,0.335-0.451,0.623-0.738,0.858    c-0.074,0.364-0.213,0.724-0.42,1.061l-0.387,0.627c-0.207,0.338-0.467,0.625-0.76,0.856c-0.08,0.362-0.224,0.716-0.434,1.047    l-0.401,0.63c-0.212,0.333-0.474,0.612-0.771,0.839c-0.086,0.362-0.236,0.716-0.453,1.044l-0.412,0.624    c-0.217,0.327-0.482,0.603-0.781,0.822c-0.093,0.361-0.248,0.713-0.471,1.037l-0.418,0.611c-0.224,0.326-0.494,0.598-0.799,0.814    c-0.097,0.357-0.258,0.705-0.484,1.025l-0.427,0.604c-0.229,0.324-0.507,0.593-0.815,0.807c-0.104,0.357-0.271,0.704-0.505,1.022    l-0.437,0.595c-0.233,0.317-0.514,0.582-0.824,0.788c-0.109,0.354-0.281,0.696-0.519,1.009l-0.444,0.588    c-0.24,0.316-0.525,0.576-0.84,0.779c-0.115,0.354-0.295,0.694-0.537,1.005l-0.457,0.58c-0.244,0.312-0.533,0.565-0.851,0.763    c-0.12,0.352-0.305,0.688-0.552,0.994l-0.471,0.58c-0.248,0.303-0.539,0.551-0.856,0.74c-0.126,0.349-0.313,0.682-0.565,0.982    l-0.479,0.572c-0.255,0.301-0.551,0.546-0.874,0.732c-0.132,0.347-0.326,0.677-0.583,0.975l-0.483,0.556    c-0.259,0.301-0.56,0.541-0.887,0.723c-0.139,0.346-0.34,0.673-0.602,0.967l-0.495,0.553c-0.262,0.291-0.565,0.525-0.894,0.701    c-0.144,0.342-0.348,0.664-0.613,0.953l-0.507,0.548c-0.269,0.289-0.575,0.518-0.907,0.688c-0.148,0.338-0.357,0.657-0.627,0.94    l-0.52,0.544c-0.271,0.281-0.582,0.506-0.915,0.67c-0.153,0.336-0.368,0.653-0.644,0.933l-0.523,0.531    c-0.279,0.279-0.593,0.498-0.928,0.657c-0.162,0.335-0.383,0.649-0.663,0.924l-0.517,0.506c-0.283,0.277-0.604,0.493-0.947,0.649    c-0.166,0.335-0.393,0.647-0.68,0.921l-0.538,0.509c-0.285,0.271-0.607,0.48-0.95,0.628c-0.17,0.329-0.398,0.633-0.686,0.898    l-0.553,0.507c-0.289,0.265-0.613,0.468-0.957,0.609c-0.176,0.326-0.41,0.629-0.703,0.89l-0.558,0.495    c-0.294,0.261-0.621,0.458-0.968,0.595c-0.181,0.323-0.42,0.62-0.717,0.876l-0.566,0.486c-0.298,0.257-0.629,0.448-0.978,0.58    c-0.186,0.319-0.431,0.612-0.73,0.864l-0.575,0.479c-0.303,0.25-0.635,0.437-0.984,0.561c-0.191,0.318-0.441,0.609-0.747,0.857    l-0.577,0.463c-0.309,0.247-0.646,0.43-0.999,0.549c-0.196,0.314-0.45,0.6-0.759,0.84l-0.521,0.404    c-0.322,0.251-0.679,0.435-1.05,0.55c-0.205,0.325-0.473,0.62-0.799,0.865l-0.588,0.443c-0.314,0.235-0.659,0.408-1.016,0.516    c-0.209,0.309-0.472,0.587-0.789,0.818l-0.6,0.436c-0.318,0.23-0.664,0.396-1.021,0.498c-0.213,0.304-0.48,0.577-0.802,0.804    l-0.61,0.428c-0.32,0.224-0.667,0.382-1.023,0.478c-0.219,0.303-0.491,0.571-0.814,0.792l-0.618,0.418    c-0.325,0.219-0.675,0.372-1.033,0.462c-0.222,0.296-0.498,0.56-0.823,0.773l-0.632,0.413c-0.325,0.212-0.677,0.358-1.036,0.442    c-0.227,0.294-0.509,0.554-0.84,0.765l-0.626,0.396c-0.333,0.208-0.688,0.352-1.052,0.43c-0.231,0.289-0.516,0.544-0.85,0.749    l-0.639,0.389c-0.336,0.202-0.692,0.339-1.055,0.411c-0.236,0.286-0.525,0.536-0.863,0.735l-0.645,0.376    c-0.337,0.197-0.695,0.327-1.061,0.394c-0.241,0.283-0.534,0.528-0.876,0.723l-0.649,0.365c-0.341,0.192-0.703,0.316-1.067,0.377    c-0.245,0.277-0.542,0.519-0.886,0.706l-0.648,0.354c-0.35,0.19-0.717,0.31-1.088,0.365c-0.25,0.273-0.552,0.51-0.899,0.691    l-0.665,0.347c-0.48,0.25-0.997,0.369-1.505,0.369c-1.187,0-2.332-0.646-2.915-1.772c-0.834-1.608-0.205-3.588,1.404-4.421    l0.635-0.332c0.335-0.176,0.688-0.287,1.041-0.34c0.24-0.262,0.525-0.489,0.854-0.668l0.639-0.348    c0.333-0.182,0.683-0.3,1.036-0.359c0.237-0.269,0.523-0.503,0.854-0.688l0.625-0.354c0.328-0.187,0.676-0.31,1.027-0.373    c0.232-0.273,0.516-0.513,0.844-0.703l0.619-0.362c0.324-0.192,0.668-0.32,1.018-0.39c0.229-0.276,0.507-0.52,0.829-0.715    l0.611-0.372c0.322-0.197,0.666-0.332,1.016-0.409c0.224-0.278,0.496-0.525,0.814-0.727l0.611-0.386    c0.319-0.201,0.659-0.341,1.007-0.423c0.22-0.285,0.49-0.538,0.811-0.745l0.594-0.388c0.316-0.209,0.656-0.355,1.004-0.443    c0.215-0.286,0.48-0.542,0.793-0.754l0.595-0.402c0.312-0.213,0.647-0.363,0.992-0.456c0.21-0.291,0.472-0.553,0.782-0.769    l0.588-0.413c0.309-0.217,0.641-0.374,0.985-0.472c0.204-0.293,0.46-0.558,0.765-0.779l0.586-0.425    c0.305-0.221,0.635-0.383,0.977-0.486c0.199-0.296,0.449-0.563,0.75-0.789l0.582-0.438c0.301-0.228,0.631-0.395,0.971-0.504    c0.193-0.298,0.438-0.569,0.735-0.8l0.572-0.444c0.298-0.234,0.624-0.407,0.964-0.522c0.189-0.302,0.431-0.578,0.725-0.813    l0.564-0.454c0.293-0.237,0.615-0.415,0.951-0.536c0.187-0.308,0.426-0.589,0.718-0.831l0.55-0.457    c0.291-0.243,0.613-0.428,0.949-0.555c0.18-0.308,0.414-0.592,0.699-0.838l0.545-0.469c0.288-0.247,0.605-0.438,0.939-0.569    c0.175-0.312,0.404-0.601,0.687-0.851l0.539-0.478c0.282-0.252,0.596-0.445,0.927-0.583c0.17-0.315,0.396-0.607,0.676-0.863    l0.525-0.483c0.279-0.258,0.592-0.458,0.922-0.601c0.164-0.316,0.384-0.612,0.657-0.871l0.525-0.498    c0.274-0.261,0.581-0.465,0.907-0.612c0.158-0.319,0.372-0.617,0.641-0.881l0.521-0.509c0.27-0.266,0.573-0.475,0.896-0.627    c0.154-0.323,0.365-0.626,0.631-0.895l0.506-0.512c0.266-0.27,0.566-0.483,0.889-0.643c0.148-0.326,0.355-0.633,0.617-0.906    l0.494-0.516c0.262-0.277,0.561-0.496,0.881-0.661c0.144-0.327,0.344-0.635,0.6-0.912l0.49-0.528    c0.256-0.28,0.551-0.503,0.867-0.673c0.138-0.33,0.334-0.644,0.586-0.925l0.483-0.539c0.253-0.281,0.542-0.51,0.854-0.682    c0.132-0.332,0.32-0.645,0.565-0.93l0.478-0.55c0.248-0.287,0.535-0.521,0.846-0.699c0.127-0.335,0.312-0.653,0.555-0.941    l0.463-0.552c0.244-0.291,0.525-0.529,0.834-0.714c0.123-0.339,0.303-0.66,0.543-0.955l0.453-0.559    c0.239-0.295,0.518-0.536,0.822-0.726c0.116-0.338,0.29-0.661,0.522-0.957l0.45-0.574c0.233-0.296,0.508-0.542,0.807-0.735    c0.11-0.339,0.279-0.665,0.505-0.963l0.44-0.582c0.229-0.302,0.5-0.555,0.8-0.753c0.104-0.342,0.269-0.671,0.491-0.975    l0.432-0.588c0.224-0.305,0.489-0.56,0.783-0.762c0.1-0.342,0.257-0.673,0.474-0.979l0.42-0.593    c0.219-0.311,0.481-0.571,0.774-0.78c0.094-0.346,0.246-0.681,0.46-0.992l0.411-0.6c0.213-0.313,0.471-0.576,0.76-0.789    c0.088-0.348,0.236-0.688,0.447-1.003l0.396-0.601c0.209-0.316,0.462-0.584,0.746-0.802c0.083-0.348,0.225-0.688,0.429-1.008    l0.388-0.606c0.203-0.322,0.454-0.596,0.736-0.819c0.078-0.348,0.213-0.688,0.41-1.009l0.383-0.622    c0.197-0.322,0.441-0.597,0.718-0.824c0.072-0.353,0.204-0.699,0.399-1.024l0.367-0.62c0.192-0.326,0.434-0.606,0.707-0.838    c0.066-0.353,0.191-0.698,0.379-1.027l0.357-0.625c0.188-0.331,0.425-0.616,0.695-0.853c0.061-0.354,0.18-0.701,0.361-1.032    l0.348-0.632c0.182-0.333,0.413-0.622,0.68-0.863c0.055-0.354,0.168-0.705,0.345-1.038l0.341-0.646    c0.178-0.335,0.404-0.626,0.666-0.871c0.049-0.353,0.156-0.703,0.326-1.039l0.332-0.652c0.17-0.336,0.391-0.63,0.647-0.879    c0.043-0.354,0.145-0.707,0.31-1.047l0.32-0.657c0.166-0.34,0.383-0.639,0.636-0.892c0.038-0.357,0.135-0.715,0.296-1.06    l0.306-0.652c0.16-0.343,0.372-0.646,0.623-0.903c0.031-0.356,0.122-0.715,0.277-1.06l0.296-0.661    c0.153-0.346,0.36-0.652,0.606-0.913c0.025-0.358,0.11-0.719,0.261-1.066l0.285-0.667c0.147-0.348,0.35-0.656,0.59-0.921    c0.02-0.359,0.1-0.721,0.243-1.071l0.274-0.67c0.143-0.351,0.34-0.663,0.578-0.932c0.012-0.356,0.084-0.715,0.221-1.065    l0.267-0.685c0.136-0.353,0.327-0.668,0.56-0.94c0.008-0.359,0.076-0.726,0.209-1.081l0.252-0.679    c0.132-0.354,0.317-0.671,0.545-0.948c0.002-0.36,0.063-0.727,0.19-1.087l0.241-0.682c0.126-0.355,0.307-0.677,0.529-0.956    c-0.004-0.36,0.053-0.729,0.174-1.09l0.227-0.676c0.119-0.361,0.297-0.689,0.517-0.975c-0.01-0.362,0.04-0.732,0.157-1.096    l0.215-0.678c0.114-0.362,0.285-0.691,0.5-0.98c-0.016-0.358,0.027-0.727,0.136-1.09l0.207-0.691    c0.108-0.365,0.273-0.696,0.483-0.988c-0.021-0.359,0.016-0.729,0.119-1.095l0.195-0.696c0.102-0.365,0.262-0.698,0.467-0.993    c-0.028-0.358,0.004-0.729,0.102-1.097l0.184-0.698c0.096-0.366,0.25-0.7,0.449-0.998c-0.035-0.36-0.01-0.733,0.084-1.105    l0.169-0.689c0.09-0.372,0.239-0.712,0.437-1.017c-0.039-0.356-0.021-0.726,0.064-1.095l0.16-0.705    c0.084-0.37,0.228-0.712,0.418-1.017c-0.046-0.357-0.033-0.729,0.047-1.102l0.148-0.708c0.078-0.37,0.215-0.713,0.4-1.02    c-0.053-0.358-0.045-0.73,0.029-1.106l0.135-0.697c0.072-0.377,0.205-0.725,0.386-1.037c-0.058-0.354-0.057-0.725,0.009-1.099    l0.127-0.712c0.065-0.376,0.191-0.725,0.369-1.039c-0.063-0.355-0.069-0.726-0.009-1.103l0.114-0.714    c0.06-0.375,0.18-0.725,0.351-1.04c-0.069-0.355-0.081-0.728-0.025-1.106l0.101-0.705c0.053-0.378,0.168-0.731,0.334-1.052    c-0.075-0.353-0.094-0.724-0.045-1.101l0.091-0.717c0.046-0.377,0.156-0.732,0.315-1.055c-0.08-0.352-0.104-0.724-0.062-1.104    l0.079-0.719c0.041-0.376,0.145-0.731,0.299-1.055c-0.088-0.353-0.117-0.725-0.08-1.106l0.066-0.708    c0.034-0.38,0.131-0.74,0.281-1.068c-0.094-0.351-0.129-0.726-0.098-1.11l0.055-0.709c0.028-0.378,0.119-0.735,0.263-1.065    c-0.099-0.347-0.14-0.716-0.115-1.095l0.043-0.708c0.021-0.38,0.106-0.741,0.244-1.075c-0.103-0.343-0.149-0.709-0.133-1.087    l0.031-0.72c0.016-0.379,0.095-0.741,0.228-1.075c-0.107-0.342-0.162-0.708-0.15-1.087l0.02-0.721    c0.01-0.378,0.084-0.739,0.211-1.074c-0.115-0.341-0.174-0.708-0.168-1.088l0.009-0.722c0.005-0.376,0.072-0.737,0.192-1.072    c-0.12-0.341-0.186-0.709-0.186-1.092l-0.004-0.708c-0.002-0.381,0.061-0.746,0.176-1.085c-0.124-0.336-0.195-0.698-0.201-1.077    l-0.016-0.719c-0.008-0.378,0.048-0.743,0.158-1.083c-0.129-0.334-0.207-0.696-0.219-1.074l-0.025-0.718    c-0.016-0.377,0.035-0.742,0.139-1.083c-0.136-0.335-0.218-0.697-0.237-1.079l-0.036-0.707c-0.022-0.381,0.022-0.75,0.122-1.096    c-0.14-0.329-0.229-0.687-0.255-1.065l-0.049-0.719c-0.026-0.378,0.012-0.746,0.105-1.093c-0.146-0.328-0.24-0.687-0.271-1.064    l-0.063-0.718c-0.031-0.376,0-0.743,0.088-1.09c-0.151-0.328-0.251-0.686-0.289-1.064l-0.07-0.705    c-0.041-0.379-0.014-0.75,0.068-1.1c-0.156-0.322-0.262-0.675-0.306-1.051l-0.085-0.716c-0.045-0.376-0.025-0.745,0.052-1.095    c-0.162-0.321-0.273-0.675-0.323-1.051l-0.096-0.714c-0.051-0.374-0.037-0.742,0.033-1.093c-0.168-0.319-0.286-0.672-0.342-1.049    l-0.105-0.701c-0.059-0.376-0.051-0.748,0.015-1.103c-0.171-0.313-0.294-0.661-0.356-1.033l-0.119-0.711    c-0.064-0.373-0.062-0.742-0.002-1.096c-0.178-0.312-0.308-0.66-0.376-1.034l-0.131-0.708c-0.069-0.372-0.073-0.74-0.02-1.095    c-0.183-0.31-0.317-0.656-0.392-1.029l-0.141-0.694c-0.077-0.373-0.087-0.744-0.039-1.101c-0.189-0.308-0.33-0.653-0.41-1.027    l-0.152-0.693c-0.082-0.371-0.098-0.74-0.056-1.097c-0.194-0.306-0.341-0.649-0.427-1.022l-0.164-0.691    c-0.088-0.368-0.109-0.736-0.074-1.092c-0.197-0.3-0.35-0.639-0.441-1.007l-0.178-0.699c-0.094-0.366-0.121-0.734-0.09-1.09    c-0.203-0.297-0.36-0.634-0.458-1.001l-0.187-0.684c-0.1-0.366-0.135-0.734-0.111-1.092c-0.209-0.297-0.373-0.632-0.479-1.001    l-0.195-0.68c-0.106-0.364-0.146-0.732-0.129-1.091c-0.213-0.293-0.383-0.626-0.494-0.993l-0.206-0.676    c-0.112-0.361-0.159-0.729-0.146-1.086c-0.218-0.287-0.39-0.613-0.507-0.975l-0.224-0.687c-0.117-0.359-0.169-0.724-0.162-1.082    c-0.222-0.283-0.401-0.609-0.523-0.968l-0.234-0.681c-0.122-0.357-0.181-0.72-0.179-1.078c-0.225-0.276-0.408-0.596-0.535-0.95    l-0.246-0.676c-0.131-0.358-0.196-0.723-0.202-1.083c-0.229-0.273-0.418-0.59-0.552-0.943l-0.258-0.673    c-0.136-0.353-0.206-0.716-0.217-1.075c-0.23-0.267-0.422-0.578-0.562-0.923l-0.271-0.675c-0.141-0.35-0.217-0.709-0.233-1.066    c-0.236-0.264-0.433-0.572-0.577-0.917l-0.281-0.669c-0.146-0.347-0.227-0.705-0.251-1.06c-0.241-0.262-0.444-0.567-0.594-0.911    l-0.292-0.665c-0.15-0.344-0.238-0.7-0.268-1.054c-0.244-0.257-0.453-0.559-0.609-0.9l-0.303-0.66    c-0.157-0.342-0.25-0.698-0.285-1.053c-0.248-0.252-0.461-0.55-0.621-0.888l-0.315-0.657c-0.163-0.339-0.262-0.693-0.302-1.047    c-0.253-0.248-0.47-0.542-0.637-0.877l-0.325-0.651c-0.169-0.337-0.272-0.689-0.319-1.042c-0.26-0.247-0.484-0.541-0.658-0.878    l-0.328-0.634c-0.175-0.335-0.285-0.688-0.338-1.041c-0.261-0.24-0.486-0.526-0.664-0.855l-0.346-0.639    c-0.18-0.332-0.297-0.683-0.354-1.036c-0.267-0.237-0.498-0.522-0.683-0.85l-0.351-0.626c-0.187-0.331-0.31-0.679-0.372-1.031    c-0.271-0.233-0.508-0.514-0.696-0.838l-0.362-0.622c-0.191-0.327-0.321-0.673-0.39-1.026c-0.274-0.228-0.515-0.504-0.71-0.826    l-0.377-0.624c-0.194-0.322-0.327-0.664-0.402-1.012c-0.277-0.225-0.525-0.499-0.726-0.82l-0.382-0.608    c-0.201-0.32-0.34-0.661-0.42-1.009c-0.283-0.22-0.533-0.49-0.739-0.807l-0.39-0.6c-0.208-0.317-0.354-0.658-0.44-1.006    c-0.284-0.214-0.538-0.479-0.749-0.791l-0.406-0.605c-0.211-0.313-0.361-0.648-0.453-0.995c-0.287-0.209-0.547-0.471-0.762-0.781    l-0.412-0.589c-0.217-0.311-0.372-0.645-0.471-0.988c-0.291-0.205-0.554-0.461-0.774-0.768l-0.421-0.583    c-0.224-0.307-0.385-0.64-0.488-0.984c-0.298-0.201-0.566-0.455-0.792-0.758l-0.431-0.577c-0.227-0.303-0.393-0.631-0.501-0.973    c-0.3-0.196-0.571-0.444-0.802-0.742l-0.445-0.578c-0.23-0.297-0.401-0.623-0.515-0.961c-0.302-0.191-0.578-0.437-0.813-0.733    l-0.447-0.558c-0.237-0.296-0.416-0.621-0.535-0.959c-0.305-0.186-0.584-0.424-0.822-0.715l-0.464-0.562    c-0.241-0.291-0.423-0.61-0.548-0.946c-0.309-0.181-0.593-0.417-0.838-0.704l-0.465-0.544c-0.247-0.289-0.437-0.608-0.567-0.944    c-0.312-0.175-0.598-0.405-0.847-0.688l-0.479-0.543c-0.251-0.284-0.444-0.599-0.58-0.931c-0.313-0.171-0.603-0.396-0.857-0.675    l-0.487-0.536c-0.256-0.279-0.453-0.59-0.594-0.918c-0.319-0.167-0.615-0.389-0.875-0.667l-0.49-0.521    c-0.261-0.276-0.464-0.585-0.611-0.914c-0.32-0.161-0.619-0.377-0.882-0.649l-0.503-0.516c-0.266-0.271-0.474-0.577-0.625-0.903    c-0.322-0.156-0.625-0.367-0.893-0.634l-0.51-0.509c-0.27-0.268-0.482-0.569-0.639-0.892c-0.326-0.15-0.631-0.356-0.902-0.619    l-0.521-0.503c-0.273-0.262-0.491-0.56-0.654-0.879c-0.326-0.146-0.635-0.347-0.911-0.604l-0.53-0.495    c-0.277-0.257-0.498-0.552-0.666-0.869c-0.33-0.14-0.643-0.337-0.923-0.59l-0.534-0.483c-0.282-0.254-0.51-0.545-0.684-0.859    c-0.331-0.134-0.646-0.325-0.93-0.574l-0.547-0.477c-0.285-0.249-0.518-0.537-0.695-0.848c-0.334-0.129-0.652-0.315-0.939-0.559    l-0.551-0.465c-0.291-0.246-0.529-0.53-0.712-0.839c-0.337-0.124-0.659-0.305-0.95-0.544l-0.562-0.46    c-0.293-0.239-0.534-0.518-0.722-0.823c-0.338-0.118-0.663-0.294-0.961-0.53l-0.564-0.448c-0.297-0.235-0.543-0.51-0.736-0.813    c-0.342-0.113-0.672-0.286-0.975-0.519l-0.568-0.436c-0.301-0.229-0.552-0.501-0.75-0.8c-0.344-0.107-0.677-0.275-0.982-0.502    l-0.572-0.424c-0.307-0.225-0.563-0.494-0.766-0.791c-0.345-0.103-0.68-0.263-0.988-0.485l-0.583-0.417    c-0.31-0.22-0.569-0.484-0.776-0.778c-0.348-0.096-0.684-0.251-0.997-0.468l-0.589-0.407c-0.313-0.215-0.577-0.475-0.789-0.765    c-0.348-0.091-0.687-0.24-1.002-0.45l-0.601-0.401c-0.315-0.209-0.584-0.465-0.801-0.75c-0.35-0.084-0.69-0.228-1.009-0.434    l-0.607-0.392c-0.319-0.204-0.591-0.455-0.813-0.738c-0.353-0.079-0.697-0.218-1.021-0.42l-0.605-0.376    c-0.324-0.199-0.602-0.446-0.829-0.727c-0.353-0.073-0.7-0.206-1.027-0.403l-0.615-0.369c-0.326-0.194-0.605-0.436-0.837-0.71    c-0.354-0.068-0.704-0.196-1.034-0.387l-0.618-0.356c-0.329-0.189-0.615-0.426-0.851-0.699c-0.354-0.061-0.701-0.181-1.033-0.365    l-0.635-0.353c-0.332-0.184-0.619-0.416-0.858-0.683c-0.356-0.056-0.708-0.171-1.044-0.351l-0.637-0.339    c-0.334-0.179-0.627-0.406-0.871-0.67c-0.357-0.049-0.713-0.16-1.053-0.335l-0.637-0.327c-0.338-0.173-0.635-0.396-0.883-0.655    c-0.358-0.044-0.717-0.148-1.059-0.318l-0.641-0.315c-0.342-0.167-0.643-0.386-0.896-0.643c-0.359-0.038-0.718-0.136-1.063-0.3    l-0.647-0.306c-0.345-0.161-0.647-0.375-0.905-0.627c-0.359-0.032-0.72-0.125-1.066-0.282l-0.654-0.294    c-0.348-0.156-0.654-0.365-0.916-0.613c-0.359-0.025-0.721-0.112-1.07-0.264l-0.658-0.284c-0.35-0.15-0.661-0.354-0.927-0.597    c-0.36-0.021-0.725-0.101-1.077-0.248l-0.662-0.273c-0.353-0.145-0.666-0.343-0.936-0.582c-0.359-0.014-0.725-0.088-1.078-0.229    l-0.67-0.263c-0.354-0.138-0.672-0.332-0.945-0.566c-0.36-0.008-0.725-0.076-1.082-0.21l-0.677-0.253    c-0.356-0.132-0.675-0.32-0.952-0.55c-0.358-0.003-0.723-0.064-1.08-0.191l-0.689-0.244c-0.357-0.126-0.68-0.309-0.959-0.534    c-0.363,0.012-0.729-0.052-1.09-0.175l-0.682-0.229c-0.361-0.121-0.688-0.298-0.973-0.52c-0.359,0.01-0.725-0.039-1.086-0.154    l-0.694-0.221c-0.361-0.114-0.688-0.286-0.976-0.5c-0.359,0.013-0.721-0.029-1.082-0.138l-0.697-0.208    c-0.362-0.108-0.691-0.273-0.98-0.482c-0.359,0.021-0.729-0.017-1.096-0.122l-0.688-0.195c-0.365-0.102-0.699-0.262-0.994-0.468    c-0.354,0.027-0.722-0.004-1.086-0.102l-0.703-0.186c-0.365-0.096-0.699-0.25-0.997-0.45c-0.356,0.034-0.724,0.007-1.091-0.084    l-0.701-0.172c-0.369-0.091-0.706-0.24-1.008-0.436c-0.353,0.039-0.721,0.02-1.088-0.065l-0.71-0.163    c-0.368-0.084-0.707-0.228-1.011-0.417c-0.356,0.046-0.725,0.031-1.096-0.048l-0.703-0.149c-0.372-0.079-0.715-0.216-1.021-0.402    c-0.355,0.052-0.727,0.043-1.097-0.031l-0.703-0.136c-0.373-0.072-0.72-0.204-1.03-0.385c-0.352,0.055-0.719,0.054-1.091-0.012    l-0.716-0.127c-0.372-0.066-0.719-0.192-1.032-0.367c-0.354,0.063-0.725,0.067-1.1,0.005l-0.706-0.115    c-0.374-0.059-0.724-0.18-1.04-0.35c-0.352,0.066-0.719,0.079-1.092,0.023l-0.72-0.104c-0.374-0.053-0.725-0.168-1.042-0.333    c-0.352,0.074-0.72,0.091-1.096,0.042l-0.716-0.093c-0.376-0.046-0.729-0.156-1.049-0.315c-0.352,0.079-0.72,0.103-1.099,0.059    l-0.711-0.08c-0.377-0.042-0.733-0.145-1.058-0.299c-0.346,0.084-0.713,0.112-1.088,0.077l-0.725-0.068    c-0.376-0.036-0.732-0.133-1.058-0.282c-0.347,0.089-0.716,0.126-1.092,0.094l-0.72-0.057c-0.377-0.029-0.734-0.121-1.063-0.264    c-0.347,0.096-0.717,0.133-1.096,0.112l-0.713-0.045c-0.378-0.022-0.738-0.109-1.07-0.248c-0.342,0.102-0.707,0.152-1.084,0.13    l-0.727-0.033c-0.377-0.017-0.738-0.098-1.07-0.23c-0.344,0.107-0.71,0.161-1.092,0.147l-0.713-0.022    c-0.381-0.011-0.742-0.085-1.078-0.213c-0.343,0.113-0.699,0.178-1.092,0.165l-0.722-0.011c-0.377-0.005-0.738-0.075-1.073-0.197    c-0.338,0.117-0.701,0.181-1.078,0.181h-0.725c-0.383-0.016-0.743-0.063-1.081-0.179c-0.337,0.124-0.7,0.193-1.079,0.198    l-0.72,0.013c-0.371,0.004-0.742-0.051-1.082-0.162c-0.336,0.129-0.697,0.204-1.076,0.215l-0.712,0.024    c-0.375,0.018-0.746-0.039-1.09-0.145c-0.331,0.133-0.69,0.214-1.066,0.233l-0.727,0.036c-0.38,0.018-0.745-0.026-1.088-0.127    c-0.33,0.139-0.688,0.226-1.066,0.25l-0.719,0.047c-0.378,0.025-0.747-0.015-1.093-0.109c-0.329,0.146-0.687,0.238-1.065,0.268    l-0.713,0.058c-0.38,0.034-0.749-0.002-1.096-0.092c-0.324,0.15-0.678,0.248-1.053,0.285l-0.724,0.071    c-0.374,0.038-0.742,0.011-1.09-0.073c-0.323,0.156-0.678,0.26-1.054,0.303l-0.717,0.083c-0.376,0.043-0.745,0.021-1.095-0.056    c-0.321,0.16-0.674,0.271-1.051,0.319l-0.709,0.093c-0.378,0.05-0.747,0.034-1.099-0.038c-0.315,0.165-0.665,0.281-1.038,0.336    l-0.718,0.106c-0.375,0.056-0.744,0.047-1.096-0.02c-0.314,0.171-0.663,0.292-1.037,0.354l-0.711,0.117    c-0.373,0.063-0.743,0.06-1.097-0.002c-0.313,0.176-0.66,0.304-1.034,0.371l-0.703,0.128c-0.373,0.068-0.743,0.071-1.099,0.016    c-0.307,0.181-0.65,0.313-1.02,0.386l-0.713,0.142c-0.371,0.076-0.74,0.085-1.096,0.034c-0.308,0.188-0.651,0.327-1.023,0.405    l-0.698,0.151c-0.37,0.081-0.738,0.096-1.095,0.052c-0.303,0.191-0.641,0.335-1.009,0.421l-0.708,0.165    c-0.369,0.087-0.737,0.107-1.093,0.069c-0.3,0.196-0.637,0.346-1.004,0.437l-0.699,0.176c-0.367,0.093-0.735,0.119-1.092,0.088    c-0.296,0.201-0.63,0.356-0.994,0.454l-0.703,0.188c-0.365,0.099-0.731,0.13-1.088,0.106c-0.292,0.206-0.625,0.367-0.989,0.471    l-0.692,0.198c-0.364,0.106-0.735,0.145-1.091,0.124c-0.289,0.21-0.618,0.376-0.979,0.486l-0.694,0.211    c-0.36,0.109-0.725,0.152-1.083,0.141c-0.289,0.217-0.617,0.389-0.979,0.504l-0.68,0.219c-0.361,0.118-0.732,0.168-1.086,0.161    c-0.283,0.219-0.606,0.397-0.965,0.519l-0.682,0.231c-0.358,0.123-0.726,0.165-1.081,0.178c-0.278,0.224-0.598,0.406-0.954,0.534    l-0.685,0.246c-0.355,0.127-0.718,0.19-1.076,0.194c-0.276,0.231-0.596,0.419-0.952,0.552l-0.669,0.253    c-0.354,0.134-0.715,0.204-1.072,0.213c-0.271,0.232-0.584,0.424-0.936,0.562l-0.665,0.265c-0.351,0.14-0.711,0.215-1.068,0.23    c-0.268,0.237-0.579,0.435-0.927,0.578l-0.662,0.275c-0.348,0.145-0.707,0.226-1.063,0.248c-0.264,0.242-0.572,0.444-0.919,0.595    l-0.658,0.286c-0.345,0.151-0.702,0.237-1.057,0.264c-0.26,0.246-0.563,0.454-0.909,0.609l-0.652,0.297    c-0.343,0.156-0.699,0.249-1.054,0.283c-0.256,0.25-0.558,0.463-0.9,0.624l-0.648,0.308c-0.34,0.162-0.694,0.26-1.049,0.299    c-0.251,0.255-0.548,0.472-0.888,0.639l-0.643,0.317c-0.337,0.167-0.691,0.272-1.045,0.317c-0.248,0.259-0.543,0.482-0.881,0.654    L174.917,78c-0.336,0.174-0.687,0.285-1.042,0.335c-0.243,0.263-0.534,0.491-0.869,0.669l-0.633,0.338    c-0.331,0.179-0.681,0.294-1.032,0.35c-0.239,0.267-0.526,0.5-0.857,0.683l-0.627,0.349c-0.329,0.185-0.676,0.306-1.028,0.368    c-0.235,0.272-0.52,0.51-0.849,0.699l-0.617,0.356c-0.327,0.189-0.673,0.317-1.024,0.386c-0.229,0.273-0.508,0.514-0.832,0.708    l-0.617,0.371c-0.324,0.195-0.667,0.328-1.018,0.402c-0.226,0.279-0.502,0.526-0.825,0.726l-0.605,0.376    c-0.321,0.202-0.663,0.34-1.012,0.419c-0.221,0.283-0.493,0.534-0.812,0.737l-0.602,0.388c-0.316,0.206-0.656,0.35-1.003,0.435    c-0.217,0.288-0.485,0.543-0.801,0.753l-0.598,0.399c-0.313,0.21-0.65,0.359-0.995,0.449c-0.212,0.29-0.476,0.55-0.789,0.765    l-0.586,0.406c-0.311,0.216-0.646,0.372-0.99,0.468c-0.208,0.293-0.468,0.558-0.777,0.778l-0.58,0.417    c-0.307,0.22-0.64,0.381-0.983,0.483c-0.203,0.297-0.458,0.566-0.765,0.792l-0.573,0.426c-0.304,0.226-0.633,0.392-0.975,0.5    c-0.199,0.3-0.449,0.573-0.752,0.804l-0.566,0.435c-0.299,0.23-0.626,0.402-0.966,0.515c-0.193,0.304-0.44,0.581-0.739,0.816    l-0.556,0.441c-0.297,0.237-0.622,0.415-0.96,0.533c-0.187,0.305-0.428,0.584-0.72,0.824l-0.56,0.459    c-0.292,0.24-0.613,0.421-0.948,0.545c-0.182,0.307-0.418,0.591-0.708,0.834l-0.549,0.467c-0.288,0.245-0.606,0.433-0.941,0.562    c-0.177,0.311-0.408,0.598-0.694,0.847l-0.541,0.474c-0.285,0.25-0.601,0.443-0.933,0.578c-0.171,0.312-0.396,0.601-0.675,0.853    l-0.54,0.49c-0.28,0.254-0.592,0.452-0.922,0.592c-0.168,0.318-0.39,0.612-0.667,0.871l-0.522,0.49    c-0.277,0.26-0.586,0.463-0.915,0.609c-0.162,0.318-0.379,0.617-0.651,0.879l-0.518,0.5c-0.273,0.265-0.58,0.472-0.905,0.623    c-0.156,0.321-0.368,0.623-0.635,0.889l-0.511,0.512c-0.269,0.268-0.57,0.48-0.894,0.637c-0.151,0.325-0.359,0.631-0.624,0.902    l-0.501,0.517c-0.263,0.273-0.562,0.49-0.882,0.651c-0.146,0.327-0.348,0.635-0.606,0.91l-0.496,0.529    c-0.259,0.276-0.555,0.498-0.871,0.665c-0.141,0.329-0.339,0.641-0.593,0.92l-0.488,0.536c-0.253,0.28-0.544,0.506-0.858,0.677    c-0.135,0.333-0.328,0.648-0.579,0.933l-0.476,0.541c-0.25,0.285-0.538,0.517-0.851,0.693c-0.13,0.333-0.316,0.651-0.562,0.938    l-0.47,0.553c-0.245,0.289-0.53,0.524-0.838,0.707c-0.125,0.336-0.306,0.656-0.547,0.948l-0.458,0.557    c-0.241,0.294-0.522,0.536-0.828,0.722c-0.12,0.339-0.298,0.666-0.536,0.963l-0.447,0.56c-0.235,0.297-0.512,0.542-0.816,0.735    c-0.115,0.342-0.288,0.67-0.52,0.971l-0.438,0.567c-0.23,0.301-0.503,0.551-0.803,0.748c-0.108,0.344-0.276,0.676-0.505,0.982    l-0.428,0.575c-0.225,0.304-0.493,0.558-0.79,0.76c-0.103,0.344-0.265,0.678-0.487,0.986l-0.421,0.585    c-0.221,0.309-0.486,0.566-0.779,0.772c-0.097,0.347-0.253,0.684-0.472,0.996l-0.408,0.587c-0.216,0.312-0.477,0.576-0.767,0.788    c-0.092,0.349-0.243,0.687-0.456,1.003l-0.398,0.595c-0.212,0.316-0.468,0.584-0.755,0.8c-0.085,0.349-0.229,0.689-0.437,1.008    l-0.393,0.605c-0.205,0.319-0.457,0.59-0.74,0.812c-0.08,0.35-0.219,0.693-0.42,1.015l-0.383,0.613    c-0.201,0.321-0.447,0.597-0.727,0.822c-0.074,0.354-0.208,0.7-0.406,1.026l-0.37,0.614c-0.195,0.326-0.438,0.605-0.714,0.834    c-0.067,0.353-0.195,0.698-0.385,1.025l-0.364,0.629c-0.19,0.328-0.428,0.612-0.7,0.846c-0.063,0.354-0.185,0.704-0.371,1.035    l-0.351,0.63c-0.185,0.332-0.418,0.619-0.687,0.857c-0.057,0.357-0.174,0.71-0.356,1.045l-0.337,0.628    c-0.179,0.337-0.409,0.629-0.674,0.873c-0.051,0.355-0.161,0.708-0.336,1.045l-0.332,0.643c-0.173,0.338-0.397,0.632-0.657,0.88    c-0.045,0.357-0.15,0.714-0.32,1.054l-0.319,0.645c-0.168,0.341-0.387,0.64-0.643,0.891c-0.04,0.359-0.139,0.717-0.303,1.061    l-0.308,0.649c-0.163,0.344-0.377,0.647-0.63,0.903c-0.033,0.359-0.126,0.717-0.285,1.063l-0.298,0.655    c-0.156,0.347-0.366,0.653-0.615,0.914c-0.028,0.359-0.115,0.719-0.267,1.067l-0.289,0.663c-0.151,0.349-0.355,0.658-0.598,0.921    c-0.021,0.361-0.103,0.723-0.25,1.076l-0.276,0.664c-0.146,0.352-0.345,0.665-0.585,0.933c-0.015,0.358-0.09,0.72-0.229,1.072    l-0.268,0.677c-0.14,0.354-0.334,0.67-0.569,0.941c-0.009,0.361-0.079,0.725-0.214,1.081l-0.253,0.672    c-0.133,0.357-0.323,0.676-0.554,0.953c-0.003,0.362-0.067,0.729-0.197,1.087l-0.242,0.675c-0.128,0.36-0.313,0.683-0.538,0.963    c0.002,0.36-0.055,0.727-0.179,1.087l-0.232,0.685c-0.122,0.36-0.301,0.687-0.522,0.97c0.009,0.358-0.042,0.725-0.158,1.085    l-0.222,0.689c-0.115,0.362-0.287,0.691-0.504,0.978c0.014,0.36-0.031,0.728-0.143,1.091l-0.208,0.684    c-0.11,0.363-0.276,0.694-0.488,0.984c0.02,0.358-0.019,0.725-0.124,1.089l-0.199,0.695c-0.104,0.363-0.264,0.695-0.47,0.989    c0.025,0.358-0.007,0.727-0.107,1.094l-0.185,0.69c-0.097,0.367-0.253,0.704-0.455,1.001c0.031,0.357,0.005,0.726-0.089,1.093    l-0.175,0.698c-0.091,0.368-0.241,0.706-0.437,1.006c0.038,0.356,0.016,0.727-0.072,1.096l-0.162,0.697    c-0.085,0.37-0.231,0.711-0.422,1.015c0.043,0.354,0.028,0.721-0.051,1.09l-0.154,0.709c-0.079,0.37-0.218,0.712-0.404,1.018    c0.05,0.356,0.042,0.728-0.035,1.1l-0.14,0.702c-0.073,0.373-0.206,0.718-0.388,1.028c0.055,0.353,0.052,0.72-0.016,1.092    l-0.13,0.715c-0.068,0.372-0.195,0.717-0.371,1.029c0.06,0.354,0.064,0.722,0.001,1.096l-0.117,0.711    c-0.062,0.375-0.183,0.724-0.355,1.039c0.066,0.354,0.076,0.724,0.019,1.099l-0.105,0.707c-0.054,0.376-0.17,0.728-0.336,1.046    c0.072,0.35,0.088,0.718,0.038,1.092l-0.095,0.72c-0.049,0.375-0.16,0.727-0.32,1.047c0.078,0.35,0.099,0.718,0.056,1.094    l-0.083,0.716c-0.043,0.377-0.147,0.731-0.304,1.055c0.083,0.348,0.111,0.715,0.074,1.091l-0.071,0.717    c-0.036,0.379-0.135,0.736-0.286,1.063c0.09,0.348,0.123,0.715,0.09,1.093l-0.059,0.718c-0.031,0.378-0.124,0.735-0.269,1.063    c0.095,0.348,0.135,0.716,0.109,1.095l-0.047,0.714c-0.024,0.379-0.112,0.738-0.252,1.069c0.1,0.343,0.146,0.708,0.126,1.085    l-0.036,0.726c-0.019,0.378-0.101,0.738-0.234,1.07c0.105,0.342,0.157,0.708,0.143,1.086l-0.023,0.72    c-0.012,0.379-0.088,0.741-0.217,1.076c0.11,0.339,0.167,0.703,0.161,1.081l-0.014,0.728c-0.007,0.378-0.076,0.739-0.2,1.075    c0.117,0.34,0.179,0.703,0.178,1.082l-0.002,0.718c0,0.38-0.064,0.745-0.183,1.084c0.123,0.337,0.191,0.703,0.196,1.083    l0.01,0.714c0.006,0.379-0.052,0.744-0.164,1.085c0.127,0.334,0.201,0.695,0.211,1.073l0.022,0.718    c0.012,0.377-0.04,0.741-0.146,1.083c0.133,0.333,0.213,0.695,0.229,1.074l0.033,0.714c0.019,0.379-0.027,0.746-0.129,1.09    c0.137,0.33,0.223,0.688,0.247,1.065l0.045,0.726c0.024,0.377-0.017,0.743-0.112,1.087c0.144,0.329,0.235,0.687,0.264,1.064    l0.057,0.718c0.03,0.378-0.004,0.746-0.094,1.093c0.149,0.328,0.247,0.686,0.282,1.064l0.068,0.712    c0.037,0.377,0.008,0.745-0.076,1.093c0.154,0.323,0.257,0.676,0.298,1.051l0.082,0.723c0.042,0.376,0.019,0.744-0.06,1.093    c0.159,0.321,0.269,0.674,0.316,1.049l0.092,0.716c0.048,0.375,0.032,0.744-0.041,1.095c0.166,0.32,0.281,0.671,0.334,1.048    l0.103,0.709c0.056,0.375,0.045,0.745-0.023,1.096c0.169,0.315,0.29,0.663,0.35,1.036l0.116,0.718    c0.061,0.371,0.057,0.741-0.004,1.093c0.174,0.313,0.301,0.66,0.368,1.033l0.126,0.71c0.067,0.372,0.068,0.742,0.013,1.098    c0.181,0.31,0.313,0.655,0.385,1.029l0.137,0.701c0.073,0.372,0.082,0.742,0.031,1.097c0.185,0.306,0.322,0.646,0.4,1.016    l0.151,0.711c0.08,0.369,0.093,0.739,0.048,1.094c0.19,0.304,0.334,0.645,0.418,1.013l0.162,0.701    c0.085,0.368,0.105,0.735,0.068,1.091c0.195,0.302,0.344,0.641,0.434,1.008l0.17,0.69c0.091,0.366,0.118,0.733,0.086,1.09    c0.199,0.296,0.352,0.629,0.448,0.992l0.185,0.698c0.097,0.364,0.129,0.731,0.103,1.087c0.205,0.294,0.364,0.626,0.466,0.99    l0.194,0.687c0.103,0.362,0.142,0.729,0.121,1.085c0.209,0.291,0.374,0.621,0.482,0.983l0.206,0.686    c0.11,0.361,0.154,0.728,0.139,1.084c0.214,0.287,0.384,0.615,0.499,0.976l0.216,0.678c0.115,0.361,0.166,0.727,0.157,1.086    c0.218,0.282,0.393,0.604,0.512,0.962l0.229,0.681c0.121,0.356,0.178,0.722,0.175,1.08c0.223,0.279,0.404,0.6,0.529,0.956    l0.24,0.676c0.127,0.355,0.189,0.719,0.192,1.076c0.227,0.274,0.413,0.592,0.543,0.943l0.254,0.681    c0.132,0.352,0.2,0.713,0.208,1.068c0.233,0.273,0.424,0.59,0.562,0.943l0.261,0.661c0.139,0.353,0.213,0.715,0.228,1.073    c0.238,0.27,0.436,0.582,0.579,0.934l0.27,0.657c0.145,0.35,0.225,0.71,0.245,1.067c0.244,0.267,0.446,0.577,0.595,0.928    l0.281,0.651c0.15,0.348,0.236,0.706,0.263,1.063c0.246,0.262,0.454,0.569,0.608,0.917l0.291,0.646    c0.156,0.346,0.248,0.703,0.281,1.061c0.252,0.258,0.464,0.562,0.625,0.907l0.302,0.643c0.161,0.343,0.259,0.697,0.296,1.055    c0.255,0.252,0.473,0.553,0.639,0.895l0.313,0.638c0.167,0.34,0.271,0.695,0.315,1.05c0.26,0.25,0.482,0.546,0.653,0.885    l0.326,0.638c0.172,0.335,0.281,0.688,0.331,1.042c0.261,0.243,0.487,0.534,0.664,0.867l0.338,0.636    c0.178,0.334,0.292,0.684,0.348,1.037c0.266,0.24,0.498,0.529,0.681,0.86l0.346,0.627c0.184,0.33,0.305,0.68,0.366,1.033    c0.271,0.235,0.507,0.52,0.695,0.85l0.357,0.624c0.188,0.326,0.314,0.672,0.381,1.022c0.274,0.231,0.515,0.512,0.708,0.839    l0.368,0.616c0.194,0.324,0.325,0.668,0.398,1.018c0.279,0.228,0.525,0.506,0.724,0.829l0.376,0.609    c0.199,0.32,0.336,0.663,0.415,1.013c0.281,0.222,0.531,0.494,0.735,0.813l0.387,0.605c0.205,0.318,0.348,0.658,0.432,1.007    c0.284,0.216,0.537,0.482,0.745,0.797l0.401,0.604c0.209,0.314,0.358,0.651,0.447,0.997c0.29,0.214,0.548,0.479,0.762,0.791    l0.407,0.593c0.215,0.312,0.369,0.646,0.464,0.991c0.292,0.208,0.555,0.469,0.774,0.778l0.415,0.581    c0.221,0.31,0.381,0.643,0.482,0.986c0.295,0.204,0.564,0.459,0.788,0.767l0.423,0.575c0.227,0.305,0.391,0.635,0.498,0.979    c0.299,0.198,0.571,0.45,0.801,0.753l0.433,0.569c0.231,0.3,0.401,0.628,0.514,0.969c0.303,0.194,0.579,0.442,0.813,0.74    l0.445,0.565c0.234,0.297,0.409,0.621,0.526,0.959c0.303,0.187,0.581,0.426,0.819,0.718l0.458,0.563    c0.24,0.294,0.421,0.616,0.543,0.954c0.307,0.182,0.588,0.418,0.831,0.707l0.467,0.554c0.245,0.288,0.43,0.607,0.559,0.941    c0.31,0.179,0.596,0.41,0.844,0.696l0.473,0.543c0.251,0.286,0.442,0.603,0.577,0.936c0.313,0.174,0.602,0.4,0.854,0.683    l0.482,0.534c0.254,0.282,0.451,0.595,0.59,0.927c0.316,0.168,0.61,0.392,0.867,0.669l0.493,0.531    c0.258,0.276,0.459,0.585,0.603,0.911c0.319,0.163,0.618,0.383,0.879,0.656l0.499,0.52c0.263,0.272,0.469,0.579,0.619,0.904    c0.321,0.158,0.622,0.371,0.888,0.64l0.511,0.515c0.266,0.268,0.478,0.571,0.632,0.894c0.323,0.151,0.627,0.359,0.896,0.623    l0.519,0.506c0.272,0.264,0.488,0.563,0.649,0.886c0.325,0.146,0.633,0.35,0.906,0.607l0.527,0.498    c0.276,0.26,0.497,0.557,0.663,0.875c0.329,0.141,0.639,0.339,0.917,0.595l0.535,0.489c0.28,0.255,0.506,0.548,0.677,0.863    c0.331,0.136,0.645,0.33,0.928,0.58l0.54,0.478c0.285,0.251,0.516,0.54,0.692,0.854c0.334,0.131,0.65,0.318,0.938,0.565    l0.548,0.469c0.289,0.247,0.523,0.532,0.705,0.842c0.335,0.126,0.657,0.31,0.949,0.552l0.555,0.459    c0.292,0.242,0.533,0.522,0.718,0.83c0.339,0.121,0.663,0.299,0.957,0.536l0.563,0.452c0.295,0.236,0.539,0.513,0.73,0.816    c0.339,0.113,0.665,0.287,0.964,0.52l0.574,0.443c0.299,0.232,0.547,0.505,0.743,0.806c0.343,0.109,0.673,0.278,0.977,0.507    l0.574,0.43c0.304,0.228,0.557,0.496,0.758,0.793c0.345,0.104,0.679,0.268,0.986,0.491l0.581,0.421    c0.308,0.223,0.565,0.488,0.771,0.781c0.344,0.099,0.678,0.254,0.987,0.471l0.595,0.416c0.31,0.217,0.572,0.479,0.782,0.769    c0.348,0.092,0.686,0.244,1,0.457l0.598,0.403c0.313,0.212,0.579,0.468,0.794,0.755c0.351,0.088,0.693,0.234,1.012,0.443    l0.597,0.389c0.318,0.207,0.59,0.46,0.81,0.744c0.351,0.082,0.694,0.223,1.015,0.426l0.608,0.382    c0.322,0.201,0.597,0.449,0.822,0.73c0.353,0.075,0.697,0.21,1.022,0.408l0.617,0.374c0.323,0.195,0.601,0.439,0.829,0.715    c0.353,0.069,0.701,0.198,1.029,0.392l0.62,0.361c0.329,0.191,0.611,0.43,0.845,0.703c0.356,0.063,0.707,0.188,1.039,0.377    l0.621,0.35c0.332,0.185,0.62,0.42,0.857,0.689c0.356,0.058,0.708,0.176,1.042,0.357l0.634,0.344    c1.594,0.859,2.189,2.849,1.33,4.443c-0.859,1.594-2.849,2.188-4.443,1.33l-0.659-0.356c-0.345-0.188-0.643-0.429-0.889-0.707    c-0.367-0.06-0.729-0.183-1.072-0.375l-0.659-0.37c-0.34-0.193-0.633-0.438-0.874-0.72c-0.365-0.065-0.727-0.196-1.066-0.394    l-0.649-0.379c-0.338-0.198-0.628-0.449-0.865-0.735c-0.366-0.071-0.727-0.208-1.064-0.412l-0.64-0.388    c-0.335-0.205-0.621-0.46-0.853-0.75c-0.363-0.078-0.719-0.219-1.052-0.427l-0.637-0.401c-0.332-0.209-0.613-0.469-0.84-0.762    c-0.361-0.084-0.715-0.231-1.044-0.444l-0.634-0.414c-0.327-0.215-0.602-0.478-0.824-0.773c-0.361-0.09-0.714-0.244-1.041-0.464    l-0.62-0.419c-0.325-0.221-0.597-0.489-0.815-0.79c-0.36-0.096-0.708-0.255-1.032-0.479l-0.608-0.426    c-0.324-0.228-0.594-0.501-0.807-0.808c-0.358-0.102-0.705-0.266-1.023-0.496l-0.608-0.44c-0.317-0.23-0.58-0.508-0.786-0.813    c-0.356-0.108-0.7-0.278-1.016-0.513l-0.601-0.452c-0.313-0.236-0.572-0.518-0.774-0.828c-0.355-0.113-0.696-0.289-1.007-0.53    l-0.587-0.455c-0.311-0.242-0.567-0.528-0.765-0.843c-0.353-0.119-0.691-0.302-1-0.547l-0.583-0.469    c-0.306-0.246-0.556-0.536-0.749-0.854c-0.35-0.124-0.684-0.312-0.986-0.561l-0.576-0.478c-0.302-0.251-0.548-0.546-0.736-0.866    c-0.348-0.13-0.679-0.322-0.978-0.576l-0.567-0.486c-0.299-0.257-0.539-0.556-0.721-0.88c-0.345-0.135-0.674-0.332-0.967-0.591    l-0.561-0.495c-0.294-0.262-0.53-0.564-0.708-0.893c-0.344-0.141-0.67-0.344-0.96-0.609l-0.548-0.501    c-0.291-0.266-0.522-0.573-0.694-0.903c-0.341-0.147-0.663-0.355-0.949-0.625l-0.54-0.509c-0.288-0.271-0.515-0.582-0.681-0.916    c-0.337-0.153-0.655-0.365-0.937-0.638l-0.532-0.52c-0.283-0.275-0.505-0.59-0.667-0.927c-0.336-0.159-0.652-0.377-0.93-0.657    l-0.522-0.526c-0.277-0.279-0.493-0.598-0.648-0.936c-0.334-0.163-0.646-0.387-0.918-0.67l-0.517-0.538    c-0.272-0.284-0.482-0.604-0.632-0.944c-0.332-0.169-0.64-0.398-0.909-0.687l-0.505-0.544c-0.267-0.289-0.472-0.613-0.617-0.955    c-0.328-0.174-0.631-0.406-0.894-0.697l-0.5-0.555c-0.263-0.293-0.463-0.62-0.602-0.967c-0.324-0.178-0.623-0.415-0.881-0.71    l-0.49-0.563c-0.258-0.297-0.453-0.628-0.587-0.975c-0.322-0.185-0.618-0.429-0.872-0.729l-0.479-0.566    c-0.253-0.302-0.444-0.637-0.572-0.987c-0.319-0.189-0.61-0.438-0.858-0.741l-0.426-0.521c-0.256-0.315-0.446-0.665-0.57-1.03    c-0.329-0.198-0.627-0.457-0.88-0.776l-0.461-0.587c-0.242-0.308-0.419-0.645-0.534-0.995c-0.313-0.201-0.596-0.458-0.835-0.77    l-0.455-0.597c-0.237-0.313-0.409-0.653-0.519-1.006c-0.309-0.205-0.587-0.467-0.822-0.782l-0.445-0.604    c-0.231-0.316-0.398-0.66-0.502-1.015c-0.306-0.21-0.58-0.476-0.808-0.794l-0.437-0.612c-0.226-0.319-0.387-0.666-0.486-1.023    c-0.303-0.216-0.574-0.486-0.797-0.81l-0.423-0.615c-0.222-0.323-0.376-0.672-0.47-1.03c-0.299-0.222-0.565-0.496-0.784-0.823    l-0.41-0.617c-0.218-0.329-0.369-0.683-0.456-1.044c-0.295-0.225-0.557-0.504-0.77-0.834l-0.403-0.629    c-0.21-0.33-0.355-0.685-0.437-1.046c-0.292-0.23-0.549-0.514-0.756-0.849l-0.394-0.637c-0.203-0.333-0.342-0.688-0.417-1.049    c-0.288-0.234-0.541-0.523-0.742-0.86l-0.383-0.641c-0.199-0.337-0.332-0.695-0.401-1.06c-0.284-0.24-0.532-0.532-0.729-0.873    l-0.371-0.647c-0.194-0.339-0.32-0.7-0.384-1.064c-0.28-0.243-0.522-0.538-0.713-0.881l-0.362-0.656    c-0.188-0.342-0.309-0.705-0.366-1.07c-0.276-0.247-0.514-0.548-0.699-0.894l-0.349-0.657c-0.184-0.347-0.3-0.712-0.351-1.08    c-0.272-0.253-0.504-0.556-0.684-0.905l-0.34-0.667c-0.177-0.35-0.285-0.713-0.33-1.08c-0.267-0.258-0.495-0.563-0.668-0.914    l-0.333-0.678c-0.17-0.351-0.272-0.717-0.311-1.083c-0.263-0.261-0.486-0.571-0.653-0.926l-0.32-0.682    c-0.165-0.354-0.26-0.721-0.293-1.087c-0.258-0.266-0.476-0.579-0.638-0.936l-0.308-0.688c-0.159-0.354-0.249-0.725-0.276-1.092    c-0.255-0.271-0.467-0.588-0.623-0.946l-0.297-0.693c-0.153-0.357-0.237-0.729-0.258-1.096c-0.249-0.273-0.457-0.594-0.606-0.955    l-0.287-0.697c-0.147-0.36-0.225-0.732-0.241-1.102c-0.244-0.276-0.446-0.6-0.589-0.963l-0.274-0.699    c-0.142-0.364-0.214-0.737-0.223-1.107c-0.242-0.283-0.438-0.612-0.577-0.98l-0.258-0.69c-0.138-0.368-0.204-0.747-0.207-1.118    c-0.236-0.285-0.427-0.617-0.559-0.984l-0.249-0.702c-0.13-0.37-0.19-0.747-0.188-1.117c-0.231-0.29-0.417-0.623-0.542-0.994    l-0.238-0.705c-0.125-0.373-0.179-0.752-0.169-1.122c-0.225-0.292-0.405-0.628-0.524-1l-0.228-0.715    c-0.117-0.372-0.165-0.75-0.15-1.119c-0.221-0.297-0.396-0.636-0.51-1.011l-0.213-0.714c-0.113-0.374-0.154-0.754-0.133-1.123    c-0.216-0.3-0.385-0.644-0.493-1.019l-0.204-0.721c-0.104-0.376-0.14-0.755-0.113-1.124c-0.211-0.304-0.375-0.649-0.476-1.028    l-0.188-0.713c-0.101-0.38-0.13-0.763-0.097-1.133c-0.206-0.306-0.363-0.653-0.458-1.033l-0.18-0.728    c-0.092-0.379-0.115-0.757-0.076-1.123c-0.202-0.311-0.353-0.661-0.442-1.042l-0.167-0.729c-0.088-0.383-0.104-0.767-0.059-1.136    c-0.198-0.315-0.344-0.67-0.426-1.055l-0.155-0.725c-0.083-0.387-0.093-0.771-0.041-1.141c-0.192-0.316-0.333-0.673-0.409-1.058    l-0.145-0.738c-0.074-0.386-0.078-0.769-0.02-1.134c-0.187-0.32-0.321-0.68-0.392-1.066l-0.131-0.734    c-0.069-0.387-0.066-0.771-0.002-1.137c-0.182-0.324-0.312-0.686-0.375-1.075l-0.118-0.731c-0.063-0.39-0.054-0.773,0.017-1.14    c-0.177-0.327-0.299-0.689-0.357-1.077l-0.108-0.745c-0.055-0.388-0.039-0.769,0.037-1.131c-0.171-0.33-0.29-0.695-0.34-1.085    l-0.095-0.74c-0.049-0.391-0.027-0.773,0.054-1.136c-0.166-0.333-0.277-0.701-0.321-1.093l-0.082-0.735    c-0.043-0.392-0.016-0.775,0.072-1.137c-0.16-0.335-0.266-0.703-0.304-1.094l-0.071-0.749c-0.036-0.39-0.002-0.771,0.091-1.129    c-0.153-0.337-0.253-0.708-0.285-1.1l-0.059-0.744c-0.03-0.392,0.01-0.772,0.11-1.13c-0.15-0.341-0.244-0.714-0.268-1.107    l-0.046-0.738c-0.025-0.394,0.021-0.775,0.127-1.133c-0.144-0.342-0.23-0.715-0.25-1.107l-0.035-0.751    c-0.017-0.39,0.035-0.766,0.145-1.118c-0.137-0.344-0.218-0.718-0.23-1.11l-0.023-0.743c-0.011-0.393,0.048-0.771,0.164-1.122    c-0.132-0.346-0.207-0.719-0.213-1.111l-0.011-0.75c-0.003-0.393,0.061-0.77,0.184-1.12c-0.126-0.349-0.196-0.725-0.196-1.119    l0.002-0.746c0.001-0.393,0.072-0.77,0.2-1.118c-0.122-0.353-0.185-0.731-0.178-1.125l0.014-0.739    c0.007-0.395,0.084-0.771,0.218-1.119c-0.115-0.353-0.172-0.731-0.159-1.124l0.025-0.745c0.014-0.394,0.097-0.768,0.236-1.113    c-0.11-0.355-0.161-0.736-0.142-1.129l0.037-0.739c0.02-0.394,0.109-0.769,0.254-1.112c-0.104-0.356-0.149-0.736-0.125-1.127    l0.05-0.75c0.026-0.391,0.122-0.761,0.271-1.099c-0.098-0.359-0.138-0.74-0.105-1.132l0.062-0.744    c0.033-0.392,0.134-0.761,0.29-1.099c-0.093-0.359-0.125-0.74-0.088-1.129l0.073-0.742c0.039-0.393,0.146-0.761,0.308-1.097    c-0.087-0.362-0.113-0.743-0.069-1.134l0.085-0.741c0.046-0.391,0.159-0.757,0.325-1.09c-0.081-0.363-0.101-0.747-0.05-1.137    l0.097-0.734c0.051-0.392,0.17-0.757,0.342-1.088c-0.074-0.363-0.088-0.746-0.032-1.134l0.11-0.745    c0.059-0.387,0.183-0.749,0.36-1.074c-0.069-0.365-0.076-0.748-0.013-1.135l0.122-0.738c0.064-0.387,0.195-0.748,0.378-1.071    c-0.063-0.367-0.065-0.751,0.005-1.139l0.133-0.729c0.07-0.389,0.208-0.749,0.396-1.071c-0.057-0.366-0.052-0.749,0.024-1.134    l0.146-0.737c0.078-0.384,0.22-0.738,0.412-1.053c-0.051-0.369-0.04-0.752,0.042-1.138l0.156-0.724    c0.083-0.386,0.232-0.742,0.431-1.058c-0.044-0.368-0.026-0.75,0.062-1.131l0.17-0.732c0.091-0.382,0.244-0.732,0.447-1.043    c-0.039-0.37-0.015-0.752,0.081-1.134l0.181-0.724c0.096-0.382,0.256-0.73,0.465-1.038c-0.033-0.369-0.003-0.75,0.097-1.128    l0.195-0.728c0.103-0.379,0.268-0.724,0.48-1.027c-0.027-0.371,0.01-0.753,0.118-1.131l0.205-0.716    c0.109-0.378,0.279-0.721,0.498-1.022c-0.02-0.37,0.022-0.75,0.135-1.125l0.219-0.72c0.115-0.375,0.291-0.714,0.513-1.01    c-0.014-0.37,0.035-0.749,0.154-1.122l0.229-0.714c0.122-0.377,0.305-0.717,0.535-1.012c-0.008-0.374,0.047-0.754,0.173-1.128    l0.242-0.71c0.128-0.373,0.317-0.709,0.551-0.999c-0.003-0.373,0.059-0.751,0.191-1.123l0.255-0.712    c0.134-0.369,0.327-0.7,0.564-0.985c0.004-0.373,0.072-0.751,0.21-1.121l0.266-0.705c0.14-0.369,0.339-0.697,0.584-0.98    c0.009-0.373,0.083-0.75,0.229-1.118l0.273-0.692c0.146-0.368,0.352-0.694,0.601-0.973c0.016-0.373,0.095-0.749,0.246-1.114    l0.29-0.694c0.152-0.363,0.361-0.685,0.613-0.957c0.022-0.374,0.109-0.749,0.266-1.111l0.299-0.688    c0.158-0.36,0.373-0.679,0.631-0.949c0.027-0.371,0.12-0.744,0.282-1.103l0.312-0.685c0.164-0.358,0.383-0.672,0.645-0.937    c0.034-0.372,0.133-0.743,0.301-1.099l0.322-0.679c0.17-0.355,0.395-0.665,0.661-0.926c0.04-0.371,0.145-0.741,0.319-1.095    l0.334-0.673c0.175-0.352,0.405-0.658,0.675-0.915c0.046-0.37,0.157-0.737,0.337-1.089l0.342-0.663    c0.182-0.351,0.417-0.655,0.693-0.908c0.052-0.367,0.168-0.732,0.353-1.078l0.358-0.668c0.187-0.344,0.426-0.643,0.704-0.889    c0.059-0.368,0.181-0.732,0.373-1.076l0.365-0.654c0.192-0.343,0.438-0.639,0.72-0.881c0.064-0.368,0.193-0.73,0.391-1.071    l0.373-0.644c0.199-0.341,0.449-0.634,0.737-0.873c0.07-0.365,0.205-0.725,0.407-1.063l0.389-0.646    c0.203-0.335,0.458-0.621,0.746-0.852c0.076-0.365,0.217-0.723,0.424-1.057l0.396-0.633c0.208-0.334,0.468-0.617,0.762-0.845    c0.083-0.363,0.229-0.718,0.442-1.05l0.407-0.628c0.214-0.33,0.479-0.608,0.776-0.833c0.088-0.361,0.24-0.713,0.459-1.04    l0.42-0.626c0.219-0.325,0.486-0.598,0.786-0.815c0.094-0.36,0.251-0.708,0.475-1.031l0.43-0.619    c0.225-0.322,0.498-0.591,0.801-0.805c0.101-0.359,0.265-0.707,0.494-1.027l0.438-0.607c0.23-0.317,0.506-0.582,0.813-0.791    c0.106-0.357,0.275-0.702,0.509-1.019l0.45-0.602c0.235-0.313,0.515-0.572,0.824-0.775c0.112-0.355,0.287-0.696,0.525-1.009    l0.459-0.596c0.24-0.31,0.525-0.565,0.838-0.762c0.117-0.353,0.297-0.691,0.541-0.999l0.47-0.588    c0.244-0.306,0.533-0.557,0.85-0.75c0.123-0.35,0.308-0.685,0.556-0.988l0.474-0.577c0.252-0.305,0.545-0.552,0.867-0.74    c0.13-0.35,0.321-0.682,0.576-0.982l0.48-0.566c0.256-0.301,0.555-0.543,0.879-0.728c0.134-0.346,0.331-0.674,0.589-0.97    l0.493-0.561c0.261-0.295,0.562-0.532,0.888-0.709c0.141-0.345,0.343-0.672,0.607-0.964l0.5-0.549    c0.265-0.292,0.571-0.524,0.9-0.696c0.146-0.342,0.354-0.665,0.623-0.953l0.507-0.542c0.271-0.287,0.58-0.515,0.912-0.682    c0.152-0.339,0.364-0.659,0.637-0.941l0.52-0.536c0.274-0.282,0.587-0.503,0.921-0.665c0.156-0.336,0.373-0.652,0.651-0.93    l0.524-0.524c0.279-0.278,0.597-0.497,0.936-0.653c0.163-0.334,0.384-0.646,0.666-0.919l0.536-0.519    c0.284-0.272,0.603-0.485,0.943-0.636c0.167-0.331,0.394-0.638,0.679-0.906l0.548-0.513c0.287-0.267,0.609-0.473,0.951-0.619    c0.174-0.329,0.406-0.633,0.696-0.898l0.546-0.495c0.294-0.265,0.622-0.468,0.968-0.609c0.178-0.325,0.416-0.626,0.71-0.885    l0.561-0.492c0.296-0.259,0.625-0.455,0.972-0.588c0.183-0.322,0.424-0.619,0.723-0.873l0.568-0.482    c0.3-0.254,0.633-0.445,0.982-0.574c0.189-0.32,0.437-0.613,0.741-0.863l0.573-0.47c0.304-0.25,0.64-0.435,0.991-0.558    c0.193-0.315,0.444-0.604,0.75-0.848l0.591-0.469c0.307-0.241,0.643-0.42,0.994-0.536c0.2-0.314,0.456-0.599,0.766-0.838    l0.596-0.457c0.311-0.236,0.651-0.409,1.003-0.52c0.204-0.311,0.465-0.59,0.779-0.825l0.603-0.448    c0.315-0.231,0.657-0.399,1.01-0.504c0.21-0.307,0.474-0.582,0.793-0.812l0.61-0.437c0.318-0.226,0.663-0.388,1.019-0.488    c0.214-0.302,0.483-0.574,0.805-0.797l0.617-0.428c0.322-0.222,0.67-0.377,1.028-0.471c0.219-0.3,0.494-0.567,0.821-0.787    l0.62-0.414c0.325-0.217,0.676-0.367,1.033-0.455c0.225-0.296,0.503-0.559,0.832-0.772l0.63-0.407    c0.328-0.211,0.681-0.356,1.041-0.438c0.229-0.291,0.511-0.549,0.843-0.757l0.637-0.396c0.332-0.206,0.687-0.344,1.048-0.421    c0.233-0.288,0.521-0.542,0.856-0.744l0.637-0.382c0.336-0.202,0.695-0.336,1.06-0.406c0.238-0.285,0.528-0.533,0.867-0.729    l0.65-0.376c0.338-0.194,0.697-0.32,1.06-0.385c0.242-0.281,0.538-0.524,0.881-0.717l0.651-0.362    c0.342-0.189,0.704-0.311,1.069-0.37c0.248-0.277,0.547-0.516,0.894-0.702l0.657-0.351c0.345-0.184,0.708-0.299,1.074-0.353    c0.251-0.271,0.554-0.505,0.9-0.686l0.668-0.343c0.347-0.178,0.711-0.287,1.077-0.333c0.256-0.268,0.562-0.497,0.913-0.67    l0.667-0.331c0.352-0.173,0.719-0.277,1.086-0.317c0.261-0.264,0.571-0.488,0.925-0.656l0.673-0.319    c0.353-0.167,0.722-0.264,1.09-0.298c0.264-0.26,0.577-0.479,0.934-0.641l0.677-0.309c0.357-0.16,0.727-0.252,1.096-0.281    c0.269-0.255,0.585-0.47,0.946-0.627l0.683-0.296c0.358-0.155,0.729-0.24,1.098-0.263c0.272-0.251,0.593-0.458,0.955-0.609    l0.687-0.286c0.361-0.149,0.735-0.229,1.104-0.245c0.276-0.246,0.601-0.449,0.964-0.593l0.691-0.274    c0.364-0.144,0.738-0.217,1.108-0.228c0.281-0.241,0.606-0.438,0.973-0.576l0.702-0.266c0.367-0.137,0.744-0.204,1.114-0.208    c0.287-0.238,0.62-0.432,0.99-0.566l0.696-0.25c0.371-0.133,0.744-0.188,1.123-0.192c0.29-0.233,0.624-0.421,0.996-0.548    l0.708-0.241c0.372-0.126,0.744-0.177,1.124-0.173c0.293-0.228,0.629-0.409,1.002-0.531l0.716-0.23    c0.374-0.118,0.75-0.166,1.121-0.153c0.297-0.224,0.639-0.401,1.016-0.516l0.709-0.215c0.378-0.115,0.759-0.157,1.132-0.137    c0.3-0.218,0.644-0.389,1.021-0.498l0.718-0.205c0.379-0.107,0.76-0.143,1.131-0.118c0.305-0.214,0.651-0.379,1.033-0.482    l0.714-0.191c0.38-0.103,0.764-0.131,1.135-0.1c0.308-0.209,0.656-0.368,1.037-0.464l0.725-0.182    c0.382-0.096,0.766-0.119,1.136-0.08c0.311-0.203,0.663-0.357,1.046-0.447l0.721-0.167c0.383-0.09,0.768-0.107,1.137-0.062    c0.314-0.199,0.668-0.347,1.052-0.43l0.736-0.159c0.383-0.081,0.765-0.093,1.131-0.042c0.318-0.193,0.675-0.335,1.061-0.413    l0.725-0.145c0.386-0.076,0.772-0.083,1.142-0.025c0.319-0.188,0.677-0.323,1.063-0.395l0.74-0.134    c0.387-0.069,0.77-0.067,1.134-0.004c0.324-0.182,0.684-0.313,1.071-0.377l0.738-0.122c0.387-0.063,0.771-0.056,1.137,0.014    c0.326-0.177,0.689-0.302,1.079-0.36l0.732-0.108c0.392-0.059,0.776-0.044,1.143,0.031c0.328-0.171,0.692-0.289,1.081-0.341    l0.746-0.098c0.389-0.049,0.771-0.029,1.133,0.051c0.332-0.167,0.698-0.278,1.088-0.324l0.74-0.085    c0.389-0.045,0.772-0.019,1.134,0.069c0.336-0.161,0.705-0.269,1.097-0.308l0.736-0.072c0.393-0.04,0.777-0.006,1.14,0.088    c0.335-0.155,0.705-0.255,1.095-0.289l0.75-0.061c0.389-0.031,0.771,0.008,1.128,0.106c0.339-0.149,0.711-0.243,1.103-0.27    l0.745-0.048c0.392-0.026,0.773,0.02,1.13,0.125c0.343-0.145,0.716-0.232,1.108-0.252l0.739-0.037    c0.392-0.021,0.775,0.032,1.132,0.143c0.344-0.138,0.717-0.221,1.109-0.234l0.75-0.025c0.391-0.012,0.768,0.045,1.12,0.161    c0.346-0.133,0.721-0.209,1.112-0.216l0.745-0.013c0.387-0.007,0.771,0.058,1.121,0.179c0.349-0.128,0.726-0.198,1.119-0.199    h0.742c0.395,0,0.772,0.069,1.122,0.197c0.353-0.123,0.723-0.19,1.128-0.181l0.745,0.011c0.392,0.007,0.763,0.083,1.107,0.214    c0.353-0.117,0.735-0.177,1.123-0.164l0.752,0.023c0.392,0.013,0.765,0.094,1.107,0.231c0.354-0.112,0.735-0.164,1.128-0.146    l0.738,0.034c0.396,0.019,0.771,0.106,1.114,0.25c0.356-0.104,0.739-0.151,1.126-0.127l0.751,0.046    c0.392,0.026,0.762,0.119,1.101,0.267c0.358-0.1,0.738-0.141,1.131-0.109l0.744,0.058c0.393,0.032,0.762,0.132,1.101,0.287    c0.36-0.094,0.742-0.127,1.135-0.091l0.735,0.07c0.395,0.038,0.764,0.144,1.101,0.304c0.36-0.088,0.742-0.116,1.132-0.073    l0.748,0.084c0.389,0.045,0.754,0.155,1.086,0.32c0.363-0.082,0.746-0.104,1.136-0.054l0.739,0.095    c0.39,0.05,0.754,0.167,1.084,0.338c0.365-0.078,0.749-0.092,1.139-0.036l0.733,0.106c0.39,0.057,0.754,0.18,1.081,0.357    c0.367-0.071,0.749-0.08,1.137-0.018l0.742,0.121c0.387,0.063,0.746,0.192,1.069,0.374c0.366-0.065,0.749-0.067,1.138,0.002    l0.729,0.129c0.388,0.07,0.749,0.205,1.072,0.393c0.365-0.057,0.748-0.054,1.133,0.02l0.738,0.144    c0.385,0.076,0.74,0.217,1.057,0.409c0.369-0.052,0.751-0.042,1.135,0.039l0.732,0.156c0.384,0.082,0.738,0.229,1.053,0.426    c0.369-0.046,0.754-0.031,1.137,0.058l0.722,0.166c0.386,0.089,0.739,0.242,1.052,0.445c0.367-0.042,0.75-0.018,1.132,0.076    l0.724,0.178c0.383,0.095,0.732,0.253,1.041,0.461c0.371-0.035,0.754-0.004,1.135,0.095l0.717,0.189    c0.381,0.102,0.729,0.266,1.035,0.479c0.368-0.028,0.75,0.007,1.128,0.112l0.725,0.205c0.376,0.107,0.718,0.276,1.019,0.493    c0.373-0.023,0.755,0.021,1.132,0.133l0.708,0.212c0.379,0.113,0.722,0.29,1.02,0.513c0.374-0.016,0.752,0.032,1.128,0.151    l0.709,0.225c0.378,0.121,0.719,0.303,1.015,0.533c0.372-0.01,0.754,0.043,1.128,0.168l0.716,0.241    c0.372,0.126,0.708,0.314,0.997,0.546c0.376,0.004,0.756,0.057,1.128,0.188l0.701,0.249c0.373,0.133,0.708,0.327,0.996,0.565    c0.373,0.003,0.752,0.069,1.123,0.207l0.703,0.263c0.368,0.139,0.697,0.336,0.98,0.58c0.373,0.008,0.75,0.081,1.118,0.224    l0.699,0.274c0.366,0.146,0.692,0.349,0.972,0.597c0.372,0.014,0.748,0.093,1.113,0.243l0.698,0.287    c0.362,0.151,0.684,0.36,0.956,0.61c0.373,0.021,0.747,0.105,1.108,0.26l0.693,0.299c0.362,0.157,0.679,0.372,0.949,0.626    c0.372,0.028,0.743,0.118,1.103,0.279l0.688,0.31c0.358,0.163,0.673,0.382,0.938,0.642c0.37,0.034,0.742,0.131,1.099,0.297    l0.683,0.322c0.354,0.168,0.665,0.393,0.927,0.657c0.369,0.039,0.737,0.142,1.091,0.314l0.68,0.334    c0.352,0.175,0.658,0.403,0.914,0.671c0.37,0.045,0.739,0.155,1.091,0.334l0.671,0.344c0.348,0.179,0.651,0.414,0.902,0.686    c0.369,0.051,0.735,0.167,1.085,0.352l0.661,0.353c0.346,0.186,0.646,0.425,0.894,0.702c0.369,0.058,0.733,0.18,1.079,0.371    l0.65,0.361c0.346,0.191,0.643,0.437,0.887,0.718c0.366,0.064,0.729,0.191,1.069,0.386l0.655,0.378    c0.338,0.197,0.629,0.445,0.867,0.729c0.366,0.07,0.727,0.204,1.065,0.405l0.646,0.386c0.336,0.202,0.622,0.456,0.855,0.743    c0.364,0.076,0.721,0.214,1.055,0.421l0.644,0.399c0.332,0.208,0.615,0.465,0.843,0.757c0.363,0.082,0.719,0.227,1.051,0.439    l0.627,0.404c0.331,0.213,0.611,0.477,0.836,0.773c0.361,0.087,0.714,0.238,1.043,0.456l0.622,0.416    c0.327,0.219,0.603,0.486,0.821,0.786c0.359,0.093,0.711,0.25,1.035,0.473l0.619,0.428c0.322,0.223,0.591,0.494,0.805,0.797    c0.358,0.099,0.705,0.261,1.025,0.488l0.613,0.438c0.318,0.229,0.584,0.504,0.793,0.811c0.355,0.104,0.699,0.271,1.016,0.505    l0.607,0.449c0.314,0.234,0.574,0.514,0.777,0.822c0.355,0.112,0.697,0.285,1.011,0.524l0.597,0.458    c0.311,0.239,0.565,0.522,0.764,0.833c0.354,0.117,0.693,0.296,1.002,0.54l0.586,0.464c0.309,0.244,0.561,0.534,0.755,0.85    c0.353,0.123,0.689,0.309,0.994,0.558l0.575,0.47c0.305,0.25,0.553,0.543,0.742,0.864c0.348,0.128,0.68,0.317,0.98,0.57    l0.57,0.482c0.301,0.255,0.545,0.553,0.729,0.877c0.347,0.134,0.676,0.33,0.973,0.587l0.559,0.488    c0.297,0.26,0.535,0.562,0.715,0.888c0.344,0.14,0.672,0.34,0.964,0.603l0.554,0.5c0.293,0.265,0.525,0.569,0.699,0.898    c0.342,0.146,0.666,0.352,0.955,0.621l0.542,0.506c0.287,0.27,0.517,0.579,0.685,0.911c0.34,0.15,0.658,0.361,0.942,0.634    l0.534,0.515c0.284,0.273,0.508,0.586,0.67,0.921c0.339,0.156,0.654,0.373,0.934,0.649l0.529,0.527    c0.277,0.278,0.496,0.594,0.653,0.931c0.333,0.161,0.646,0.381,0.919,0.662l0.521,0.536c0.273,0.282,0.485,0.601,0.638,0.941    c0.332,0.167,0.641,0.393,0.91,0.677l0.514,0.546c0.269,0.287,0.475,0.608,0.621,0.948c0.329,0.172,0.635,0.404,0.9,0.694    l0.5,0.548c0.265,0.292,0.468,0.619,0.609,0.964c0.325,0.177,0.627,0.414,0.887,0.707l0.49,0.557    c0.261,0.295,0.459,0.626,0.594,0.973c0.321,0.182,0.617,0.422,0.872,0.718l0.487,0.571c0.255,0.299,0.446,0.631,0.576,0.98    c0.32,0.188,0.614,0.435,0.865,0.738l0.469,0.568c0.252,0.305,0.439,0.642,0.564,0.993c0.315,0.193,0.604,0.443,0.85,0.749    l0.468,0.586c0.244,0.308,0.425,0.644,0.542,0.997c0.315,0.199,0.602,0.455,0.842,0.767l0.45,0.583    c0.239,0.312,0.415,0.653,0.528,1.008c0.311,0.203,0.592,0.464,0.828,0.778l0.446,0.599c0.233,0.313,0.402,0.657,0.509,1.011    c0.307,0.208,0.582,0.471,0.812,0.787l0.438,0.605c0.229,0.319,0.395,0.667,0.496,1.025c0.303,0.213,0.575,0.481,0.801,0.804    l0.427,0.611c0.224,0.323,0.383,0.672,0.478,1.031c0.3,0.219,0.567,0.492,0.788,0.818l0.41,0.611    c0.221,0.327,0.373,0.68,0.463,1.041c0.295,0.222,0.558,0.498,0.771,0.825l0.408,0.628c0.214,0.329,0.36,0.683,0.443,1.044    c0.293,0.228,0.551,0.51,0.761,0.841l0.396,0.632c0.207,0.332,0.348,0.687,0.426,1.049c0.291,0.233,0.545,0.521,0.749,0.858    l0.38,0.628c0.203,0.338,0.34,0.697,0.412,1.063c0.283,0.236,0.532,0.524,0.729,0.861l0.376,0.644    c0.198,0.34,0.327,0.701,0.393,1.067c0.28,0.242,0.525,0.535,0.717,0.875l0.364,0.65c0.192,0.343,0.315,0.706,0.376,1.072    c0.275,0.246,0.515,0.543,0.701,0.886l0.351,0.648c0.188,0.348,0.307,0.715,0.36,1.084c0.273,0.251,0.508,0.552,0.688,0.899    l0.345,0.664c0.179,0.347,0.29,0.711,0.337,1.077c0.27,0.255,0.5,0.562,0.676,0.913l0.327,0.657    c0.177,0.354,0.282,0.724,0.325,1.095c0.264,0.26,0.489,0.569,0.658,0.923l0.316,0.662c0.171,0.356,0.271,0.727,0.307,1.098    c0.262,0.264,0.48,0.577,0.645,0.933l0.307,0.67c0.164,0.357,0.258,0.729,0.287,1.099c0.258,0.269,0.472,0.586,0.631,0.946    l0.295,0.673c0.157,0.361,0.245,0.733,0.27,1.104c0.252,0.273,0.461,0.593,0.613,0.956l0.285,0.678    c0.151,0.363,0.234,0.738,0.252,1.11c0.246,0.276,0.449,0.6,0.596,0.963l0.271,0.679c0.146,0.367,0.225,0.745,0.234,1.118    c0.241,0.279,0.438,0.603,0.578,0.965l0.266,0.698c0.141,0.369,0.21,0.747,0.216,1.119c0.237,0.284,0.431,0.612,0.565,0.98    l0.256,0.702c0.134,0.372,0.197,0.752,0.196,1.125c0.235,0.289,0.424,0.624,0.553,0.998l0.241,0.707    c0.127,0.371,0.183,0.749,0.175,1.118c0.231,0.293,0.414,0.631,0.536,1.006l0.23,0.708c0.121,0.373,0.171,0.752,0.158,1.123    c0.225,0.296,0.401,0.636,0.518,1.012l0.224,0.725c0.111,0.373,0.154,0.75,0.136,1.117c0.219,0.299,0.391,0.642,0.501,1.019    l0.21,0.729c0.106,0.374,0.143,0.751,0.119,1.117c0.213,0.303,0.38,0.647,0.484,1.026l0.199,0.732    c0.102,0.378,0.131,0.758,0.1,1.127c0.21,0.307,0.371,0.656,0.469,1.039l0.183,0.722c0.095,0.38,0.12,0.762,0.083,1.129    c0.205,0.311,0.359,0.663,0.451,1.045l0.174,0.737c0.088,0.379,0.105,0.758,0.063,1.123c0.199,0.313,0.349,0.665,0.434,1.049    l0.161,0.739c0.082,0.381,0.095,0.761,0.045,1.126c0.192,0.315,0.336,0.669,0.415,1.052l0.15,0.744    c0.076,0.384,0.082,0.766,0.026,1.131c0.189,0.321,0.327,0.679,0.399,1.066l0.137,0.734c0.07,0.385,0.068,0.768,0.008,1.133    c0.185,0.323,0.315,0.683,0.383,1.07l0.123,0.735c0.064,0.389,0.059,0.773-0.01,1.141c0.178,0.324,0.303,0.684,0.363,1.069    l0.113,0.75c0.057,0.386,0.044,0.766-0.029,1.128c0.174,0.33,0.293,0.696,0.347,1.086l0.1,0.739    c0.052,0.389,0.033,0.771-0.046,1.133c0.167,0.332,0.28,0.697,0.327,1.086l0.088,0.741c0.046,0.391,0.021,0.774-0.065,1.136    c0.161,0.333,0.269,0.699,0.31,1.088l0.077,0.755c0.038,0.389,0.006,0.768-0.084,1.126c0.156,0.337,0.259,0.708,0.293,1.1    l0.063,0.744c0.032,0.391-0.006,0.771-0.103,1.129c0.151,0.339,0.246,0.709,0.274,1.101l0.052,0.744    c0.026,0.393-0.018,0.774-0.121,1.132c0.146,0.34,0.234,0.711,0.257,1.102l0.039,0.757c0.02,0.39-0.03,0.768-0.139,1.12    c0.141,0.346,0.225,0.721,0.239,1.116l0.027,0.742c0.013,0.391-0.043,0.769-0.157,1.12c0.135,0.346,0.211,0.72,0.221,1.112    l0.014,0.744c0.008,0.393-0.053,0.771-0.174,1.122c0.129,0.348,0.2,0.722,0.203,1.113l0.002,0.758c0,0.39-0.067,0.763-0.191,1.109    c0.124,0.353,0.189,0.733,0.186,1.128L438.76,237.253z"/></g></g><g id="Layer_1"/></svg>