<svg width="24.000000000000004" height="24.000000000000004" xmlns="http://www.w3.org/2000/svg">

 <g>
  <title>background</title>
  <rect fill="none" id="canvas_background" height="402" width="582" y="-1" x="-1"/>
 </g>
 <g>
  <title>Layer 1</title>
  <g id="svg_1">
   <rect fill="#ffffff" id="svg_2" y="13" x="9" width="5" height="1"/>
   <rect fill="#ffffff" id="svg_3" y="15" x="9" width="5" height="1"/>
   <rect fill="#ffffff" id="svg_4" y="17" x="9" width="5" height="1"/>
   <rect fill="#ffffff" id="svg_5" y="19" x="9" width="5" height="1"/>
   <rect fill="#ffffff" id="svg_6" y="13" x="15" width="5" height="1"/>
   <rect fill="#ffffff" id="svg_7" y="15" x="15" width="5" height="1"/>
   <rect fill="#ffffff" id="svg_8" y="17" x="15" width="5" height="1"/>
   <rect fill="#ffffff" id="svg_9" y="19" x="15" width="5" height="1"/>
   <path fill="#ffffff" id="svg_10" d="m22.9,3l-2.9,0l0,-1.9c0,-0.6 -0.5,-1.1 -1.1,-1.1l-17.8,0c-0.6,0 -1.1,0.5 -1.1,1.1c0,0 0,19.2 0,19.4c0,1.9 1.6,3.5 3.5,3.5c0.2,0 0.5,0 0.5,0l16,0c0,0 0.3,0 0.5,0c1.9,0 3.5,-1.6 3.5,-3.5c0,-0.2 0,-0.5 0,-0.5l0,-15.9c0,-0.6 -0.5,-1.1 -1.1,-1.1zm-17.9,17.7c0,0.6 -0.3,1.1 -0.8,1.3l-0.2,0.1c-0.2,0.1 -0.3,0.1 -0.5,0.1c-0.8,0 -1.5,-0.7 -1.5,-1.5c0,-0.3 0,-18.7 0,-18.7l16,0l0,1l-1.5,0l-10.4,0l-2.6,0c-0.3,0 -0.5,0.2 -0.5,0.5l0,17c0,0.3 0.2,0.5 0.5,0.5s0.5,-0.2 0.5,-0.5l0,-16.5l1,0c0,0 0,16.4 0,16.7zm17,-0.7c0,0 0,0.4 0,0.7c0,0.8 -0.7,1.3 -1.5,1.3c-0.2,0 -0.5,0 -0.5,0l-13.3,0c0.2,-0.5 0.3,-1 0.3,-1.5c0,-0.2 0,-15.5 0,-15.5l15,0l0,15z"/>
   <path fill="#ffffff" id="svg_11" d="m20,7l-11,0l0,5l11,0l0,-5zm-1,4l-9,0l0,-3l9,0l0,3z"/>
  </g>
 </g>
</svg>