<svg width="24.000000000000004" height="24.000000000000004" xmlns="http://www.w3.org/2000/svg">

 <g>
  <title>background</title>
  <rect fill="none" id="canvas_background" height="402" width="582" y="-1" x="-1"/>
 </g>
 <g>
  <title>Layer 1</title>
  <path fill="#ffffff" id="svg_1" d="m9,2c-3.9,0 -7,3.1 -7,7c0,3.9 3.1,7 7,7c3.9,0 7,-3.1 7,-7c0,-3.9 -3.1,-7 -7,-7zm-1.5,8c-1.4,0 -2.5,-1.1 -2.5,-2.5c0,-1.4 1.1,-2.5 2.5,-2.5c1.4,0 2.5,1.1 2.5,2.5c0,1.4 -1.1,2.5 -2.5,2.5z"/>
  <path fill="#ffffff" id="svg_2" d="m15,11l-4,4l2,2l0,0l2,0l0,2l0,0l2,0l0,2l0.7,0.7c0.2,0.2 0.4,0.3 0.7,0.3l2.6,0c0.6,0 1,-0.4 1,-1l0,-2.6c0,-0.3 -0.1,-0.5 -0.3,-0.7l-6.7,-6.7z"/>
 </g>
</svg>